<svg width="416" height="203" viewBox="0 0 416 203" fill="none" xmlns="http://www.w3.org/2000/svg">
<path d="M67.0458 126.161L36.9221 67.0442L6.7984 126.161L0.321289 139.115H14.7149L36.9221 95.4201L52.6522 126.161L59.2321 139.115H73.6257L67.0458 126.161Z" fill="white"/>
<path d="M79.9333 67.147V139.012H115.917C125.787 139.012 134.732 135.002 141.209 128.525C142.031 127.806 142.648 126.983 143.265 126.263C148.611 119.992 151.798 111.87 151.798 103.028C151.798 83.1855 135.657 67.147 115.917 67.147H79.9333ZM92.6819 79.9984H115.917C128.563 79.9984 138.947 90.3823 138.947 103.028C138.947 115.88 128.563 126.263 115.917 126.263H92.6819V79.9984Z" fill="white"/>
<path d="M254.574 77.0169L231.544 94.8032L208.411 77.0169L195.56 67.0442V139.115H208.411V93.261L220.954 102.925L231.544 111.047L242.031 102.925L254.574 93.261V139.115H267.528V67.0442L254.574 77.0169Z" fill="white"/>
<path d="M340.401 126.161L310.277 67.0442L280.153 126.161L273.676 139.115H288.07L310.277 95.4201L326.007 126.161L332.587 139.115H346.981L340.401 126.161Z" fill="white"/>
<path d="M379.134 79.8956H415.118V67.0442H379.134C359.189 67.0442 343.15 83.1855 343.15 103.028C343.15 122.973 359.189 139.115 379.134 139.115H415.118V99.6353H379.134V112.487H402.267V126.263H379.134C366.283 126.263 355.899 115.88 355.899 103.028C355.899 90.2795 366.283 79.8956 379.134 79.8956Z" fill="white"/>
<path d="M34.6799 146.953L175.516 202.674C177.485 203.453 179.619 202.002 179.619 199.884V3.73237C179.619 1.58019 177.42 0.12812 175.441 0.973509L34.1462 61.3258H63.9615C70.7781 61.3258 77.5254 59.9684 83.8159 57.3437C98.6916 51.1508 143.285 31.8591 157.376 26.0043C158.684 25.4611 160.09 26.433 160.09 27.8488V175.815C160.09 177.907 158.02 179.362 156.061 178.626C146.099 174.881 118.498 164.453 82.6577 150.47C76.7005 148.15 70.3543 146.953 63.9615 146.953H34.6799Z" fill="white"/>
</svg>
