<svg width="415" height="203" viewBox="0 0 415 203" fill="none" xmlns="http://www.w3.org/2000/svg">
<path d="M66.7245 126.161L36.6008 67.0442L6.47711 126.161L0 139.115H14.3936L36.6008 95.4201L52.3309 126.161L58.9108 139.115H73.3044L66.7245 126.161Z" fill="#0B70B3"/>
<path d="M79.612 67.147V139.012H115.596C125.466 139.012 134.41 135.002 140.888 128.525C141.71 127.806 142.327 126.983 142.944 126.263C148.29 119.992 151.477 111.87 151.477 103.028C151.477 83.1855 135.336 67.147 115.596 67.147H79.612ZM92.3606 79.9984H115.596C128.242 79.9984 138.626 90.3823 138.626 103.028C138.626 115.88 128.242 126.263 115.596 126.263H92.3606V79.9984Z" fill="#0B70B3"/>
<path d="M254.252 77.0169L231.223 94.8032L208.09 77.0169L195.239 67.0442V139.115H208.09V93.261L220.633 102.925L231.223 111.047L241.709 102.925L254.252 93.261V139.115H267.206V67.0442L254.252 77.0169Z" fill="#4D5765"/>
<path d="M340.08 126.161L309.956 67.0442L279.832 126.161L273.355 139.115H287.749L309.956 95.4201L325.686 126.161L332.266 139.115H346.659L340.08 126.161Z" fill="#4D5765"/>
<path d="M378.813 79.8956H414.797V67.0442H378.813C358.867 67.0442 342.829 83.1855 342.829 103.028C342.829 122.973 358.867 139.115 378.813 139.115H414.797V99.6353H378.813V112.487H401.945V126.263H378.813C365.961 126.263 355.578 115.88 355.578 103.028C355.578 90.2795 365.961 79.8956 378.813 79.8956Z" fill="#4D5765"/>
<path d="M34.3586 146.953L175.194 202.674C177.163 203.453 179.298 202.002 179.298 199.884V3.73237C179.298 1.58019 177.099 0.12812 175.12 0.973509L33.8249 61.3258H63.6402C70.4568 61.3258 77.2041 59.9684 83.4946 57.3437C98.3703 51.1508 142.964 31.8591 157.055 26.0043C158.363 25.4611 159.769 26.433 159.769 27.8488V175.815C159.769 177.907 157.699 179.362 155.74 178.626C145.778 174.881 118.176 164.453 82.3364 150.47C76.3791 148.15 70.033 146.953 63.6402 146.953H34.3586Z" fill="#0B70B3"/>
</svg>
